<svg width="62" height="61" viewBox="0 0 62 61" fill="none" xmlns="http://www.w3.org/2000/svg">
<path d="M31 0C13.8725 0 0 13.9499 0 31.1729C0 44.9669 8.87375 56.6177 21.1962 60.7481C22.7462 61.0209 23.3275 60.0857 23.3275 59.2674C23.3275 58.5271 23.2888 56.0722 23.2888 53.4615C15.5 54.9032 13.485 51.5521 12.865 49.7987C12.5162 48.9024 11.005 46.1359 9.6875 45.3955C8.6025 44.811 7.0525 43.3693 9.64875 43.3303C12.09 43.2913 13.8338 45.5903 14.415 46.5255C17.205 51.2404 21.6613 49.9156 23.4438 49.0973C23.715 47.071 24.5287 45.7072 25.42 44.9279C18.5225 44.1486 11.315 41.4599 11.315 29.5363C11.315 26.1462 12.5163 23.3407 14.4925 21.1586C14.1825 20.3793 13.0975 17.184 14.8025 12.8978C14.8025 12.8978 17.3988 12.0795 23.3275 16.093C25.8075 15.3916 28.4425 15.0409 31.0775 15.0409C33.7125 15.0409 36.3475 15.3916 38.8275 16.093C44.7563 12.0405 47.3525 12.8978 47.3525 12.8978C49.0575 17.184 47.9725 20.3793 47.6625 21.1586C49.6388 23.3407 50.84 26.1073 50.84 29.5363C50.84 41.4989 43.5938 44.1486 36.6963 44.9279C37.82 45.9021 38.7888 47.7724 38.7888 50.6949C38.7888 54.8643 38.75 58.2153 38.75 59.2674C38.75 60.0857 39.3313 61.0599 40.8813 60.7481C47.0356 58.6595 52.3836 54.6824 56.1721 49.3769C59.9606 44.0713 61.9989 37.7045 62 31.1729C62 13.9499 48.1275 0 31 0Z" fill="white"/>
</svg>
