<svg width="62" height="64" viewBox="0 0 62 64" fill="none" xmlns="http://www.w3.org/2000/svg">
<path d="M61.6346 26.6868L61.3158 25.3361H31.9113V37.7612H49.4801C47.6561 46.4089 39.1919 50.961 32.2781 50.961C27.2476 50.961 21.9448 48.8483 18.4349 45.4526C16.5832 43.6324 15.1092 41.4654 14.0973 39.0757C13.0855 36.686 12.5557 34.1205 12.5382 31.5261C12.5382 26.2924 14.8941 21.0573 18.3221 17.6137C21.7501 14.1701 26.9273 12.2434 32.0749 12.2434C37.9702 12.2434 42.1953 15.3687 43.7752 16.794L52.6189 8.01111C50.0246 5.7351 42.8978 0 31.79 0C23.22 0 15.0027 3.2774 8.99599 9.25475C3.06826 15.1405 0 23.6516 0 31.5487C0 39.4457 2.90321 47.5315 8.64755 53.4637C14.7855 59.7904 23.4782 63.0973 32.429 63.0973C40.573 63.0973 48.2923 59.9115 53.794 54.1313C59.2026 48.4413 62 40.5682 62 32.3149C62 28.8403 61.6502 26.7769 61.6346 26.6868Z" fill="white"/>
</svg>
