<svg width="145" height="54" viewBox="0 0 145 54" fill="none" xmlns="http://www.w3.org/2000/svg">
<path d="M0.0320001 1.16H20.064V6.344H7.264V23.624H17.184V28.744H7.264V53H0.0320001V1.16ZM25.032 1.16H45.128V6.536H32.264V23.688H42.696V28.808H32.264V47.816H45.256V53H25.032V1.16ZM51.0945 1.16H71.1905V6.536H58.3265V23.688H68.7585V28.808H58.3265V47.816H71.3185V53H51.0945V1.16ZM77.989 1.16H85.093L94.245 43.208L103.461 1.16H110.501L111.461 53H105.637L105.061 15.368L96.293 53H92.197L83.493 15.368L82.917 53H77.029L77.989 1.16ZM131.631 53.576C127.279 53.576 123.951 52.232 121.647 49.544C119.386 46.856 118.127 43.1653 117.871 38.472L124.271 36.744C124.484 40.072 125.124 42.76 126.191 44.808C127.3 46.856 129.114 47.88 131.631 47.88C133.508 47.88 134.916 47.368 135.855 46.344C136.836 45.2773 137.327 43.7627 137.327 41.8C137.327 39.6667 136.879 37.896 135.983 36.488C135.087 35.08 133.658 33.5227 131.695 31.816L122.991 24.136C121.242 22.6 119.962 20.9573 119.151 19.208C118.383 17.416 117.999 15.24 117.999 12.68C117.999 8.88266 119.087 5.93866 121.263 3.848C123.439 1.75733 126.404 0.711998 130.159 0.711998C134.255 0.711998 137.348 1.8 139.439 3.976C141.53 6.152 142.788 9.52266 143.215 14.088L137.071 15.752C136.858 12.7227 136.26 10.3973 135.279 8.776C134.34 7.112 132.634 6.28 130.159 6.28C128.324 6.28 126.916 6.77067 125.935 7.752C124.954 8.69066 124.463 10.0987 124.463 11.976C124.463 13.512 124.719 14.8133 125.231 15.88C125.743 16.904 126.618 17.9493 127.855 19.016L136.623 26.696C138.884 28.7013 140.676 30.8773 141.999 33.224C143.364 35.5707 144.047 38.2373 144.047 41.224C144.047 45.0213 142.895 48.0293 140.591 50.248C138.287 52.4667 135.3 53.576 131.631 53.576Z" fill="#FF0000"/>
</svg>
